<?xml version="1.0" standalone="no"?>
<!DOCTYPE svg PUBLIC "-//W3C//DTD SVG 20010904//EN"
 "http://www.w3.org/TR/2001/REC-SVG-20010904/DTD/svg10.dtd">
<svg version="1.0" xmlns="http://www.w3.org/2000/svg"
 width="1024.000000pt" height="1024.000000pt" viewBox="0 0 1024.000000 1024.000000"
 preserveAspectRatio="xMidYMid meet">

<g transform="translate(0.000000,1024.000000) scale(0.100000,-0.100000)"
fill="#000000" stroke="none">
<path d="M5003 9093 c-52 -42 -318 -266 -1368 -1148 -170 -143 -477 -401 -682
-573 -329 -276 -373 -316 -379 -347 -9 -48 7 -86 46 -112 31 -22 42 -23 230
-23 l198 0 51 34 51 35 0 -1132 c0 -1082 1 -1134 19 -1173 10 -23 34 -52 52
-65 l34 -24 1040 0 1040 0 85 23 c299 82 535 274 655 536 60 128 68 179 69
399 l1 198 50 17 c163 56 290 196 389 432 75 176 99 282 100 440 0 108 -3 142
-17 173 -39 83 -120 146 -213 163 -21 4 -54 20 -72 35 -27 24 -42 29 -83 29
-43 0 -55 -5 -80 -29 -36 -37 -39 -84 -6 -131 46 -69 121 -86 167 -40 16 16
25 17 57 9 98 -26 123 -66 123 -204 0 -191 -90 -453 -208 -605 -146 -188 -338
-214 -498 -68 -136 124 -265 442 -268 658 -1 107 24 159 95 199 l46 25 32 -27
c18 -15 45 -27 60 -27 56 0 141 83 141 137 0 13 -6 36 -14 52 -33 63 -146 70
-196 11 -8 -10 -37 -25 -64 -34 -201 -66 -264 -221 -206 -506 74 -361 254
-623 478 -695 l52 -17 0 -172 c0 -198 -12 -264 -66 -367 -44 -83 -146 -184
-227 -223 -117 -58 -76 -56 -1179 -56 l-1017 0 -20 26 c-21 27 -21 28 -21
1179 l0 1152 328 275 c383 323 1184 994 1259 1056 31 26 60 42 72 40 19 -3
430 -346 1875 -1567 88 -74 172 -141 188 -148 21 -11 72 -13 228 -11 l200 3
27 28 c22 22 28 37 28 71 0 54 -2 57 -184 210 -144 121 -239 201 -986 826
-220 184 -596 499 -835 700 -239 201 -446 373 -460 383 -17 12 -44 17 -92 17
-65 0 -69 -1 -125 -47z"/>
<path d="M4725 7713 c-44 -23 -65 -44 -86 -85 -18 -34 -19 -63 -19 -375 l0
-338 -334 0 -334 0 -44 -30 c-25 -18 -52 -49 -66 -75 -22 -45 -23 -47 -20
-410 3 -348 4 -367 24 -405 11 -22 40 -53 63 -70 l43 -30 333 -3 334 -3 3
-339 3 -338 30 -43 c17 -23 50 -53 74 -66 44 -23 47 -23 395 -23 320 0 354 2
391 19 46 21 89 64 104 103 6 16 11 153 11 338 l2 310 -47 69 c-130 196 -215
473 -215 700 0 114 17 179 63 247 37 57 117 120 164 131 l34 8 0 297 c0 315 0
318 -50 371 -53 58 -48 57 -453 57 -321 -1 -377 -3 -403 -17z"/>
<path d="M1856 4068 c-8 -13 -58 -140 -112 -283 -54 -143 -159 -422 -235 -620
-75 -198 -134 -363 -132 -367 8 -14 259 -9 271 5 6 7 31 64 55 127 l44 115
260 3 260 2 48 -130 47 -131 131 3 c115 3 132 5 135 20 2 9 -31 111 -73 225
-43 114 -144 392 -226 617 -83 226 -155 416 -161 423 -8 10 -48 13 -154 13
-138 0 -144 -1 -158 -22z m243 -540 c45 -120 81 -220 81 -223 0 -3 -77 -5
-171 -5 -138 0 -170 3 -167 13 12 51 164 445 169 439 4 -4 43 -105 88 -224z"/>
<path d="M2460 4076 c-9 -12 31 -85 214 -393 l226 -378 0 -251 c0 -220 2 -253
16 -258 9 -3 65 -6 124 -6 98 0 110 2 120 19 6 12 10 112 10 256 l0 236 226
380 c181 307 223 383 213 395 -17 21 -246 20 -276 -1 -11 -8 -81 -127 -154
-264 -74 -138 -136 -251 -139 -251 -3 0 -68 113 -144 250 -76 138 -148 257
-160 265 -29 21 -258 21 -276 1z"/>
<path d="M3716 4074 c-14 -14 -16 -67 -16 -437 0 -232 5 -449 10 -482 30 -184
171 -326 376 -379 79 -20 241 -21 319 -1 196 50 342 195 375 374 6 31 10 237
10 482 0 375 -2 429 -16 443 -12 13 -39 16 -124 16 -101 0 -110 -2 -124 -22
-14 -19 -16 -78 -16 -438 0 -272 -4 -429 -11 -455 -18 -63 -63 -120 -116 -147
-40 -19 -64 -23 -138 -23 -103 0 -149 18 -203 79 -59 67 -62 95 -62 557 l0
418 -22 15 c-32 23 -220 23 -242 0z"/>
<path d="M5043 4079 c-10 -10 -13 -152 -13 -640 0 -534 2 -628 14 -639 11 -8
96 -11 333 -8 312 4 320 4 396 30 215 72 368 230 424 438 13 46 18 102 18 195
-1 161 -23 242 -100 355 -85 125 -204 206 -372 252 -70 19 -110 22 -383 25
-238 4 -308 2 -317 -8z m642 -267 c161 -59 255 -197 255 -372 0 -188 -115
-338 -295 -385 -40 -10 -106 -15 -201 -15 l-142 0 -1 401 -2 401 163 -4 c138
-3 172 -7 223 -26z"/>
<path d="M6766 4067 c-25 -38 -477 -1249 -472 -1263 4 -11 35 -14 136 -14 151
0 132 -14 194 145 l43 110 259 3 259 2 46 -127 45 -128 123 -3 c133 -3 157 4
145 42 -4 12 -77 215 -164 451 -87 237 -187 511 -223 609 -36 99 -72 183 -79
187 -7 5 -77 9 -155 9 -137 0 -143 -1 -157 -23z m252 -547 c38 -102 73 -193
77 -202 7 -17 -5 -18 -169 -18 -97 0 -176 2 -176 4 0 3 150 415 166 456 7 17
3 25 102 -240z"/>
<path d="M7722 4078 c-13 -13 -15 -631 -3 -1058 l6 -225 119 -3 c78 -2 123 1
132 9 11 9 14 55 14 225 l0 214 83 0 83 0 129 -207 c70 -115 135 -216 143
-225 13 -16 34 -18 154 -18 114 0 140 3 144 15 4 9 -53 106 -144 247 l-150
233 58 27 c67 32 137 103 177 179 26 51 28 62 28 174 0 114 -2 123 -32 187
-53 113 -148 189 -280 223 -75 20 -642 22 -661 3z m615 -260 c91 -60 111 -199
40 -277 -46 -50 -90 -61 -249 -61 l-148 0 0 186 0 186 158 -4 c153 -3 160 -4
199 -30z"/>
<path d="M4122 2501 c-55 -19 -114 -67 -138 -112 -40 -77 -25 -183 36 -251 42
-49 95 -76 221 -113 96 -28 146 -57 168 -97 19 -34 7 -73 -32 -102 -36 -26
-136 -28 -184 -3 -32 17 -83 75 -83 95 0 6 -5 14 -10 17 -11 7 -138 -31 -153
-45 -15 -14 34 -109 75 -146 107 -96 302 -118 439 -49 92 47 133 121 127 230
-6 131 -64 183 -281 252 -134 42 -167 65 -167 116 0 62 71 95 162 76 45 -10
83 -41 113 -94 10 -17 14 -16 84 6 40 13 76 30 78 37 9 23 -29 93 -71 128 -81
70 -265 96 -384 55z"/>
<path d="M5809 2506 c-63 -22 -103 -50 -134 -95 -28 -39 -30 -50 -30 -126 0
-77 2 -87 30 -126 43 -61 82 -84 205 -123 128 -41 161 -57 189 -92 95 -121
-154 -196 -256 -78 -18 20 -33 43 -33 50 0 24 -20 25 -90 3 -63 -21 -70 -26
-70 -49 0 -37 52 -114 99 -148 96 -70 292 -83 404 -28 100 48 144 128 135 245
-8 117 -74 173 -275 236 -131 41 -173 70 -173 120 0 114 226 103 271 -12 11
-29 19 -28 99 1 62 23 65 26 63 55 -3 66 -99 150 -194 170 -68 15 -196 13
-240 -3z"/>
<path d="M5002 2497 c-20 -24 -302 -811 -293 -820 4 -4 43 -7 87 -5 l79 3 31
80 32 80 172 0 172 0 25 -70 c14 -38 30 -76 35 -82 15 -19 157 -18 164 1 3 8
-35 127 -84 263 -50 136 -114 313 -143 393 -28 80 -56 151 -62 158 -14 17
-201 17 -215 -1z m168 -346 c33 -89 60 -164 60 -167 0 -7 -240 -4 -240 4 0 11
114 331 117 328 2 -1 30 -76 63 -165z"/>
</g>
</svg>
